<svg width="26.000000" height="26.000000" viewBox="0 0 26 26" fill="none" xmlns="http://www.w3.org/2000/svg" xmlns:xlink="http://www.w3.org/1999/xlink">
	<desc>
			Created with Pixso.
	</desc>
	<defs>
		<clipPath id="clip1_347">
			<rect id="foundation:telephone" width="26.000000" height="26.000000" fill="white" fill-opacity="0"/>
		</clipPath>
	</defs>
	<g clip-path="url(#clip1_347)">
		<path id="Vector" d="M24.1872 19.4758C24.1337 19.1455 23.9267 18.8633 23.6166 18.6958L19.0294 15.9929L18.9917 15.9719C18.7993 15.8755 18.5869 15.8262 18.3718 15.8279C17.9875 15.8279 17.6205 15.9734 17.3657 16.2288L16.0118 17.5835C15.9539 17.6384 15.7651 17.718 15.7078 17.7209C15.6921 17.7197 14.1325 17.6074 11.2611 14.7356C8.39486 11.8701 8.27326 10.3057 8.2723 10.3057C8.2739 10.2256 8.35262 10.0374 8.40862 9.97925L9.56318 8.82495C9.9699 8.41724 10.0918 7.74146 9.85054 7.21802L7.30078 2.42017C7.1155 2.03882 6.7555 1.80322 6.35614 1.80322C6.07358 1.80322 5.80094 1.92041 5.58782 2.13306L2.44062 5.27319C2.13886 5.57349 1.87902 6.09814 1.82238 6.52075C1.79486 6.72266 1.23646 11.5425 7.84446 18.1514C13.4544 23.7607 17.8288 24.1965 19.0368 24.1965C19.1839 24.1985 19.331 24.1909 19.4771 24.1738C19.8982 24.1174 20.4224 23.8582 20.7222 23.5579L23.8669 20.4136C24.1235 20.1555 24.2406 19.8147 24.1872 19.4758Z" fill="#F5F5F5" fill-opacity="1.000000" fill-rule="nonzero"/>
	</g>
</svg>
