<svg width="24.000000" height="24.000000" viewBox="0 0 24 24" fill="none" xmlns="http://www.w3.org/2000/svg" xmlns:xlink="http://www.w3.org/1999/xlink">
	<desc>
			Created with Pixso.
	</desc>
	<defs>
		<clipPath id="clip1_359">
			<rect id="material-symbols:location-on-outline-rounded" width="24.000000" height="24.000000" fill="white" fill-opacity="0"/>
		</clipPath>
	</defs>
	<rect id="material-symbols:location-on-outline-rounded" width="24.000000" height="24.000000" fill="#FFFFFF" fill-opacity="0"/>
	<g clip-path="url(#clip1_359)">
		<path id="Vector" d="M12 12C12.55 12 13.021 11.804 13.413 11.4121C13.8043 11.0208 14 10.55 14 10C14 9.44995 13.8043 8.979 13.413 8.58691C13.021 8.19556 12.55 8 12 8C11.45 8 10.9793 8.19556 10.588 8.58691C10.196 8.979 10 9.44995 10 10C10 10.55 10.196 11.0208 10.588 11.4121C10.9793 11.804 11.45 12 12 12ZM12 19.3501C14.0333 17.4834 15.5417 15.7874 16.525 14.262C17.5083 12.7373 18 11.3833 18 10.2C18 8.3833 17.4207 6.89575 16.262 5.73706C15.104 4.5791 13.6833 4 12 4C10.3167 4 8.89567 4.5791 7.737 5.73706C6.579 6.89575 6 8.3833 6 10.2C6 11.3833 6.49167 12.7373 7.475 14.262C8.45834 15.7874 9.96667 17.4834 12 19.3501ZM12 21.625C11.8667 21.625 11.7333 21.6001 11.6 21.55C11.4667 21.5 11.35 21.4333 11.25 21.3501C8.81667 19.2 7 17.2043 5.8 15.363C4.6 13.521 4 11.8 4 10.2C4 7.69995 4.80434 5.70825 6.413 4.2251C8.021 2.7417 9.88333 2 12 2C14.1167 2 15.979 2.7417 17.587 4.2251C19.1957 5.70825 20 7.69995 20 10.2C20 11.8 19.4 13.521 18.2 15.363C17 17.2043 15.1833 19.2 12.75 21.3501C12.65 21.4333 12.5333 21.5 12.4 21.55C12.2667 21.6001 12.1333 21.625 12 21.625Z" fill="#F5F5F5" fill-opacity="1.000000" fill-rule="nonzero"/>
	</g>
</svg>
